<svg xmlns="http://www.w3.org/2000/svg" version="1.1" xmlns:xlink="http://www.w3.org/1999/xlink" xmlns:svgjs="http://svgjs.dev/svgjs" width="1000" height="320" viewBox="0 0 1000 320"><g transform="matrix(1,0,0,1,-0.6060359453913975,0.432613645432383)"><svg viewBox="0 0 396 127" data-background-color="#ffffff" preserveAspectRatio="xMidYMid meet" height="320" width="1000" xmlns="http://www.w3.org/2000/svg" xmlns:xlink="http://www.w3.org/1999/xlink"><g id="tight-bounds" transform="matrix(1,0,0,1,0.239990234375,-0.17169354053098118)"><svg viewBox="0 0 395.52 127.34338708106196" height="127.34338708106196" width="395.52"><rect width="395.52001953125" height="127.3433837890625" fill="url(#c4d64492-9c3d-4f15-ad5d-97beb3e9cc2e)" mask="url(#a0ceb853-0506-499c-8be9-7f11b0626b94)" data-fill-palette-color="tertiary"></rect><g><svg viewBox="0 0 395.52 127.34338708106196" height="127.34338708106196" width="395.52"><g><svg viewBox="0 0 395.52 127.34338708106196" height="127.34338708106196" width="395.52"><g id="textblocktransform"><svg viewBox="0 0 395.52 127.34338708106196" height="127.34338708106196" width="395.52" id="textblock"><g><rect width="395.52" height="96.73818336283186" fill="none" stroke-width="9.018103199999999" stroke="url(#c4d64492-9c3d-4f15-ad5d-97beb3e9cc2e)" data-fill-palette-color="none" data-stroke-palette-color="tertiary"></rect><rect width="395.52" height="30.605203718230094" y="96.73818336283186" fill="url(#c4d64492-9c3d-4f15-ad5d-97beb3e9cc2e)" data-fill-palette-color="tertiary"></rect></g><g><svg viewBox="0 0 395.52 96.73818336283186" height="96.73818336283186" width="395.52"><g transform="matrix(1,0,0,1,23.607599999999998,23.607599999999998)"><svg width="348.3048" viewBox="2.5 -35.45000076293945 254.23001098632812 36.150001525878906" height="49.522983362831866" data-palette-color="url(#a04d15fd-ad63-499c-adde-4a9bc9ee7497)"></svg></g></svg></g></svg></g></svg></g><g></g></svg></g><defs></defs><mask id="f803b44c-f82e-4475-8a6f-e642d1dc698a"><g id="SvgjsG1041"><svg viewBox="0 0 395.52 127.34338708106196" height="127.34338708106196" width="395.52"><g><svg viewBox="0 0 395.52 127.34338708106196" height="127.34338708106196" width="395.52"><g><svg viewBox="0 0 395.52 127.34338708106196" height="127.34338708106196" width="395.52"><g id="SvgjsG1040"><svg viewBox="0 0 395.52 127.34338708106196" height="127.34338708106196" width="395.52" id="SvgjsSvg1039"><g></g><g><svg viewBox="0 0 395.52 96.73818336283186" height="96.73818336283186" width="395.52"><g transform="matrix(1,0,0,1,23.607599999999998,23.607599999999998)"><svg width="348.3048" viewBox="2.5 -35.45000076293945 254.23001098632812 36.150001525878906" height="49.522983362831866" data-palette-color="url(#a04d15fd-ad63-499c-adde-4a9bc9ee7497)"><path d="M19.8 0.7L19.8 0.7Q11.35 0.7 6.93-4 2.5-8.7 2.5-17.35L2.5-17.35Q2.5-21.65 3.85-25.03 5.2-28.4 7.55-30.73 9.9-33.05 13.15-34.25 16.4-35.45 20.2-35.45L20.2-35.45Q22.4-35.45 24.2-35.13 26-34.8 27.35-34.38 28.7-33.95 29.6-33.5 30.5-33.05 30.9-32.8L30.9-32.8 28.65-26.5Q27.05-27.35 24.93-27.95 22.8-28.55 20.1-28.55L20.1-28.55Q18.3-28.55 16.57-27.95 14.85-27.35 13.53-26.03 12.2-24.7 11.4-22.6 10.6-20.5 10.6-17.5L10.6-17.5Q10.6-15.1 11.13-13.03 11.65-10.95 12.83-9.45 14-7.95 15.9-7.08 17.8-6.2 20.5-6.2L20.5-6.2Q22.2-6.2 23.55-6.4 24.9-6.6 25.95-6.88 27-7.15 27.8-7.5 28.6-7.85 29.25-8.15L29.25-8.15 31.4-1.9Q29.75-0.9 26.75-0.1 23.75 0.7 19.8 0.7ZM69.35 0L61 0Q60.45-1.8 59.77-3.7 59.1-5.6 58.45-7.5L58.45-7.5 44.95-7.5Q44.3-5.6 43.62-3.7 42.95-1.8 42.4 0L42.4 0 34.3 0Q36.25-5.6 38-10.35 39.75-15.1 41.42-19.3 43.1-23.5 44.72-27.28 46.35-31.05 48.1-34.65L48.1-34.65 55.55-34.65Q57.25-31.05 58.9-27.28 60.55-23.5 62.22-19.3 63.9-15.1 65.65-10.35 67.4-5.6 69.35 0L69.35 0ZM51.65-26.8L51.65-26.8Q51.4-26.05 50.9-24.75 50.4-23.45 49.75-21.75 49.1-20.05 48.32-18 47.55-15.95 46.75-13.7L46.75-13.7 56.6-13.7Q55.8-15.95 55.05-18 54.3-20.05 53.62-21.75 52.95-23.45 52.45-24.75 51.95-26.05 51.65-26.8ZM103.65 0L97.09 0Q93.75-5.95 89.84-11.75 85.94-17.55 81.55-22.7L81.55-22.7 81.55 0 73.84 0 73.84-34.65 80.19-34.65Q81.84-33 83.84-30.6 85.84-28.2 87.92-25.48 90-22.75 92.05-19.83 94.09-16.9 95.89-14.2L95.89-14.2 95.89-34.65 103.65-34.65 103.65 0ZM137.19 0.7L137.19 0.7Q133.54 0.7 130.89-0.33 128.24-1.35 126.52-3.18 124.79-5 123.97-7.53 123.14-10.05 123.14-13.1L123.14-13.1 123.14-34.65 130.94-34.65 130.94-13.75Q130.94-11.65 131.42-10.18 131.89-8.7 132.72-7.78 133.54-6.85 134.72-6.45 135.89-6.05 137.29-6.05L137.29-6.05Q140.14-6.05 141.92-7.8 143.69-9.55 143.69-13.75L143.69-13.75 143.69-34.65 151.49-34.65 151.49-13.1Q151.49-10.05 150.64-7.5 149.79-4.95 148.04-3.13 146.29-1.3 143.59-0.3 140.89 0.7 137.19 0.7ZM170.54 0.45L170.54 0.45Q167.69 0.45 164.86 0.28 162.04 0.1 158.99-0.55L158.99-0.55 158.99-34.15Q161.39-34.6 164.24-34.83 167.09-35.05 169.54-35.05L169.54-35.05Q172.84-35.05 175.61-34.58 178.39-34.1 180.39-32.95 182.39-31.8 183.51-29.93 184.64-28.05 184.64-25.3L184.64-25.3Q184.64-21.15 180.64-18.75L180.64-18.75Q183.94-17.5 185.14-15.35 186.34-13.2 186.34-10.5L186.34-10.5Q186.34-5.05 182.36-2.3 178.39 0.45 170.54 0.45ZM171.49-15.1L166.59-15.1 166.59-6.15Q167.44-6.05 168.44-6 169.44-5.95 170.64-5.95L170.64-5.95Q174.14-5.95 176.29-6.95 178.44-7.95 178.44-10.65L178.44-10.65Q178.44-13.05 176.64-14.08 174.84-15.1 171.49-15.1L171.49-15.1ZM166.59-28.6L166.59-21.05 170.39-21.05Q173.99-21.05 175.54-21.98 177.09-22.9 177.09-24.95L177.09-24.95Q177.09-27.05 175.49-27.9 173.89-28.75 170.79-28.75L170.79-28.75Q169.79-28.75 168.64-28.73 167.49-28.7 166.59-28.6L166.59-28.6ZM206.14 0.7L206.14 0.7Q202.49 0.7 199.84-0.33 197.19-1.35 195.46-3.18 193.74-5 192.91-7.53 192.09-10.05 192.09-13.1L192.09-13.1 192.09-34.65 199.89-34.65 199.89-13.75Q199.89-11.65 200.36-10.18 200.84-8.7 201.66-7.78 202.49-6.85 203.66-6.45 204.84-6.05 206.24-6.05L206.24-6.05Q209.09-6.05 210.86-7.8 212.64-9.55 212.64-13.75L212.64-13.75 212.64-34.65 220.44-34.65 220.44-13.1Q220.44-10.05 219.59-7.5 218.74-4.95 216.99-3.13 215.24-1.3 212.54-0.3 209.84 0.7 206.14 0.7ZM240.63-20.4L240.63-20.4Q242.73-23.95 244.63-27.5 246.53-31.05 248.13-34.65L248.13-34.65 256.73-34.65Q253.88-29.05 250.83-23.8 247.78-18.55 244.38-13.25L244.38-13.25 244.38 0 236.58 0 236.58-13.15Q233.18-18.45 230.11-23.75 227.03-29.05 224.18-34.65L224.18-34.65 233.23-34.65Q234.83-31.05 236.68-27.5 238.53-23.95 240.63-20.4Z" opacity="1" transform="matrix(1,0,0,1,0,0)" fill="white" class="wordmark-text-0" id="SvgjsPath1038"></path></svg></g></svg></g></svg></g></svg></g><g></g></svg></g><defs><mask></mask></defs></svg></g></mask><linearGradient x1="0" x2="1" y1="0.5" y2="0.5" id="a04d15fd-ad63-499c-adde-4a9bc9ee7497"><stop stop-color="#ffa62e" offset="0"></stop><stop stop-color="#f71b3d" offset="1"></stop></linearGradient><rect width="395.52001953125" height="127.3433837890625" fill="url(#a04d15fd-ad63-499c-adde-4a9bc9ee7497)" mask="url(#f803b44c-f82e-4475-8a6f-e642d1dc698a)" data-fill-palette-color="primary"></rect><mask id="a0ceb853-0506-499c-8be9-7f11b0626b94"><g id="SvgjsG1048"><svg viewBox="0 0 395.52 127.34338708106196" height="127.34338708106196" width="395.52"><g><svg viewBox="0 0 395.52 127.34338708106196" height="127.34338708106196" width="395.52"><g><svg viewBox="0 0 395.52 127.34338708106196" height="127.34338708106196" width="395.52"><g id="SvgjsG1047"><svg viewBox="0 0 395.52 127.34338708106196" height="127.34338708106196" width="395.52" id="SvgjsSvg1046"><g><rect width="395.52" height="30.605203718230094" y="96.73818336283186" fill="white"></rect></g><g><svg viewBox="0 0 395.52 96.73818336283186" height="96.73818336283186" width="395.52"><g transform="matrix(1,0,0,1,23.607599999999998,23.607599999999998)"><svg width="348.3048" viewBox="2.5 -35.45000076293945 254.23001098632812 36.150001525878906" height="49.522983362831866" data-palette-color="url(#a04d15fd-ad63-499c-adde-4a9bc9ee7497)"></svg></g></svg></g></svg></g></svg></g><g></g></svg></g><defs><mask></mask></defs><mask><g id="SvgjsG1045"><svg viewBox="0 0 395.52 127.34338708106196" height="127.34338708106196" width="395.52"><g><svg viewBox="0 0 395.52 127.34338708106196" height="127.34338708106196" width="395.52"><g><svg viewBox="0 0 395.52 127.34338708106196" height="127.34338708106196" width="395.52"><g id="SvgjsG1044"><svg viewBox="0 0 395.52 127.34338708106196" height="127.34338708106196" width="395.52" id="SvgjsSvg1043"><g></g><g><svg viewBox="0 0 395.52 96.73818336283186" height="96.73818336283186" width="395.52"><g transform="matrix(1,0,0,1,23.607599999999998,23.607599999999998)"><svg width="348.3048" viewBox="2.5 -35.45000076293945 254.23001098632812 36.150001525878906" height="49.522983362831866" data-palette-color="url(#a04d15fd-ad63-499c-adde-4a9bc9ee7497)"></svg></g></svg></g></svg></g></svg></g><g></g></svg></g><defs><mask></mask></defs></svg></g></mask></svg></g></mask><linearGradient x1="0" x2="1" y1="0.5" y2="0.5" id="c4d64492-9c3d-4f15-ad5d-97beb3e9cc2e"><stop stop-color="#ffa62e" offset="0"></stop><stop stop-color="#f71b3d" offset="1"></stop></linearGradient></svg><rect width="395.52" height="127.34338708106196" fill="none" stroke="none" visibility="hidden"></rect></g></svg></g></svg>