<svg xmlns="http://www.w3.org/2000/svg" version="1.1" xmlns:xlink="http://www.w3.org/1999/xlink" xmlns:svgjs="http://svgjs.dev/svgjs" width="1000" height="164" viewBox="0 0 1000 164"><g transform="matrix(1,0,0,1,-0.6060348565971481,-0.4912236054404957)"><svg viewBox="0 0 396 65" data-background-color="#ffffff" preserveAspectRatio="xMidYMid meet" height="164" width="1000" xmlns="http://www.w3.org/2000/svg" xmlns:xlink="http://www.w3.org/1999/xlink"><g id="tight-bounds" transform="matrix(1,0,0,1,0.23999000446485752,0.1946922826440982)"><svg viewBox="0 0 395.52 64.61061543471182" height="64.61061543471182" width="395.52"><g><svg viewBox="0 0 395.52 64.61061543471182" height="64.61061543471182" width="395.52"><g><svg viewBox="0 0 395.52 64.61061543471182" height="64.61061543471182" width="395.52"><g id="textblocktransform"><svg viewBox="0 0 395.52 64.61061543471182" height="64.61061543471182" width="395.52" id="textblock"><g><svg viewBox="0 0 395.52 64.61061543471182" height="64.61061543471182" width="395.52"><g transform="matrix(1,0,0,1,0,0)"><svg width="395.52" viewBox="3.130000114440918 -36.25 224.9099884033203 36.7400016784668" height="64.61061543471182" data-palette-color="#000000"><path d="M14.4-3.81L14.4-3.81Q15.87-3.81 17.13-4.19 18.38-4.57 19.31-5.26 20.24-5.96 20.76-6.97 21.29-7.98 21.29-9.25L21.29-9.25Q21.29-10.77 20.57-11.82 19.85-12.87 18.65-13.66 17.46-14.45 15.94-15.09 14.43-15.72 12.85-16.38 11.28-17.04 9.77-17.83 8.25-18.63 7.06-19.74 5.86-20.85 5.14-22.39 4.42-23.93 4.42-26.1L4.42-26.1Q4.42-28.47 5.32-30.35 6.23-32.23 7.86-33.54 9.5-34.86 11.77-35.56 14.04-36.25 16.77-36.25L16.77-36.25Q17.58-36.25 18.63-36.18 19.68-36.11 20.87-35.95 22.07-35.79 23.38-35.53 24.68-35.28 26-34.89L26-34.89 25.05-30.15 24.58-29.91Q23.29-30.49 22.07-30.88 20.85-31.27 19.75-31.52 18.65-31.76 17.71-31.86 16.77-31.96 16.06-31.96L16.06-31.96Q14.72-31.96 13.62-31.64 12.52-31.32 11.76-30.71 10.99-30.1 10.56-29.21 10.13-28.32 10.13-27.17L10.13-27.17Q10.13-25.63 10.86-24.55 11.6-23.46 12.78-22.63 13.96-21.8 15.49-21.15 17.02-20.51 18.62-19.84 20.21-19.17 21.74-18.38 23.27-17.6 24.45-16.53 25.63-15.45 26.37-14 27.1-12.55 27.1-10.52L27.1-10.52Q27.1-8.25 26.15-6.25 25.2-4.25 23.45-2.75 21.7-1.25 19.26-0.38 16.82 0.49 13.82 0.49L13.82 0.49Q12.6 0.49 11.25 0.33 9.91 0.17 8.52-0.12 7.13-0.42 5.76-0.85 4.39-1.29 3.13-1.86L3.13-1.86 4.1-6.64 4.59-6.88Q7.18-5.47 9.64-4.64 12.11-3.81 14.4-3.81ZM39.52 0L34.25 0 36.98-35.77 45.85-35.77 53.51-12.92 54.88-7.59 55.37-7.59 56.76-12.92 64.45-35.77 73.56-35.77 76.32 0 70.07 0 68.41-26.73 68.26-32.3 67.77-32.3 66.31-26.98 57.59-0.73 52.07-0.73 43.28-26.93 41.77-32.3 41.28-32.3 41.16-26.78 39.52 0ZM101.83-3.81L101.83-3.81Q104.46-3.81 106.61-4.91 108.76-6.01 110.29-7.9 111.81-9.79 112.64-12.33 113.47-14.87 113.47-17.75L113.47-17.75Q113.47-20.8 112.56-23.4 111.64-26 110.03-27.91 108.42-29.81 106.22-30.88 104.02-31.96 101.46-31.96L101.46-31.96Q98.8-31.96 96.65-30.83 94.5-29.71 92.99-27.8 91.47-25.88 90.66-23.34 89.84-20.8 89.84-17.94L89.84-17.94Q89.84-14.89 90.74-12.3 91.65-9.72 93.24-7.84 94.84-5.96 97.04-4.88 99.24-3.81 101.83-3.81ZM101 0.49L101 0.49Q98.63 0.49 96.41-0.06 94.18-0.61 92.24-1.65 90.3-2.69 88.7-4.2 87.1-5.71 85.94-7.67 84.79-9.62 84.15-11.98 83.52-14.33 83.52-17.04L83.52-17.04Q83.52-19.85 84.2-22.36 84.88-24.88 86.12-27 87.35-29.13 89.08-30.85 90.82-32.57 92.9-33.76 94.99-34.96 97.38-35.61 99.78-36.25 102.36-36.25L102.36-36.25Q105.85-36.25 109.02-35.07 112.18-33.89 114.57-31.63 116.96-29.37 118.38-26.12 119.79-22.88 119.79-18.75L119.79-18.75Q119.79-15.97 119.12-13.45 118.45-10.94 117.23-8.8 116.01-6.67 114.3-4.94 112.59-3.22 110.51-2.01 108.42-0.81 106.01-0.16 103.61 0.49 101 0.49ZM144.74-3.81L144.74-3.81Q147.38-3.81 149.53-4.91 151.68-6.01 153.2-7.9 154.73-9.79 155.56-12.33 156.39-14.87 156.39-17.75L156.39-17.75Q156.39-20.8 155.47-23.4 154.56-26 152.95-27.91 151.34-29.81 149.14-30.88 146.94-31.96 144.38-31.96L144.38-31.96Q141.72-31.96 139.57-30.83 137.42-29.71 135.91-27.8 134.39-25.88 133.57-23.34 132.76-20.8 132.76-17.94L132.76-17.94Q132.76-14.89 133.66-12.3 134.56-9.72 136.16-7.84 137.76-5.96 139.96-4.88 142.16-3.81 144.74-3.81ZM143.91 0.49L143.91 0.49Q141.55 0.49 139.32-0.06 137.1-0.61 135.16-1.65 133.22-2.69 131.62-4.2 130.02-5.71 128.86-7.67 127.7-9.62 127.07-11.98 126.43-14.33 126.43-17.04L126.43-17.04Q126.43-19.85 127.12-22.36 127.8-24.88 129.03-27 130.27-29.13 132-30.85 133.73-32.57 135.82-33.76 137.91-34.96 140.3-35.61 142.69-36.25 145.28-36.25L145.28-36.25Q148.77-36.25 151.93-35.07 155.1-33.89 157.49-31.63 159.88-29.37 161.3-26.12 162.71-22.88 162.71-18.75L162.71-18.75Q162.71-15.97 162.04-13.45 161.37-10.94 160.15-8.8 158.93-6.67 157.22-4.94 155.51-3.22 153.42-2.01 151.34-0.81 148.93-0.16 146.53 0.49 143.91 0.49ZM185.12-9.5L193.64-35.77 199.33-35.77 186.49 0 179.68 0 166.86-35.77 173.43-35.77 181.95-9.5 183.32-4.44 183.78-4.44 185.12-9.5ZM227.23 0L205.94 0 205.94-35.77 227.7-35.77 226.89-31.47 212-31.47 212-20.68 225.18-20.68 224.4-16.5 212-16.5 212-4.3 228.04-4.3 227.23 0Z" opacity="1" transform="matrix(1,0,0,1,0,0)" fill="#000000" class="wordmark-text-0" data-fill-palette-color="primary" id="text-0"></path></svg></g></svg></g></svg></g></svg></g><g></g></svg></g><defs></defs></svg><rect width="395.52" height="64.61061543471182" fill="none" stroke="none" visibility="hidden"></rect></g></svg></g></svg>